<svg width="240" height="20" viewBox="0 0 240 20" fill="none" xmlns="http://www.w3.org/2000/svg">
  <!-- Otome section divider: hairline with a central rose heart and gold filigree. currentColor friendly via fixed warm tones. -->
  <defs>
    <linearGradient id="dh-line" x1="0" y1="0" x2="240" y2="0" gradientUnits="userSpaceOnUse">
      <stop offset="0" stop-color="#e6c178" stop-opacity="0"/>
      <stop offset="0.5" stop-color="#e6c178" stop-opacity="0.85"/>
      <stop offset="1" stop-color="#e6c178" stop-opacity="0"/>
    </linearGradient>
  </defs>
  <path d="M8 10 H96" stroke="url(#dh-line)" stroke-width="1.4"/>
  <path d="M144 10 H232" stroke="url(#dh-line)" stroke-width="1.4"/>
  <circle cx="104" cy="10" r="1.8" fill="#e6c178" opacity="0.8"/>
  <circle cx="136" cy="10" r="1.8" fill="#e6c178" opacity="0.8"/>
  <path d="M120 5.4 c2-2.4 6-1 6 2.2 c0 2.7-3.6 5-6 6.9 c-2.4-1.9-6-4.2-6-6.9 c0-3.2 4-4.6 6-2.2 Z" fill="#e58aa6"/>
  <path d="M120 5.4 c2-2.4 6-1 6 2.2 c0 2.7-3.6 5-6 6.9 c-2.4-1.9-6-4.2-6-6.9 c0-3.2 4-4.6 6-2.2 Z" stroke="#c75c80" stroke-width="0.6" fill="none" opacity="0.6"/>
</svg>
