<svg width="72" height="72" viewBox="0 0 72 72" fill="none" xmlns="http://www.w3.org/2000/svg">
  <!-- Champagne-gold otome corner bracket. Designed for top-left; flip via CSS transform for other corners. -->
  <defs>
    <linearGradient id="fc-gold" x1="0" y1="0" x2="72" y2="72" gradientUnits="userSpaceOnUse">
      <stop offset="0" stop-color="#f3d9a0"/>
      <stop offset="0.5" stop-color="#e6c178"/>
      <stop offset="1" stop-color="#c89b4a"/>
    </linearGradient>
  </defs>
  <path d="M10 60 V20 Q10 10 20 10 H60" stroke="url(#fc-gold)" stroke-width="2.4" stroke-linecap="round" fill="none"/>
  <path d="M18 50 V26 Q18 18 26 18 H50" stroke="url(#fc-gold)" stroke-width="1" stroke-linecap="round" fill="none" opacity="0.55"/>
  <circle cx="20" cy="20" r="3.4" fill="url(#fc-gold)"/>
  <path d="M20 20 m-7 0 a7 7 0 1 1 14 0" stroke="url(#fc-gold)" stroke-width="0.9" fill="none" opacity="0.5"/>
  <!-- tiny heart accent -->
  <path d="M58 14 c1.4-1.6 4-0.6 4 1.5 c0 1.8-2.4 3.3-4 4.6 c-1.6-1.3-4-2.8-4-4.6 c0-2.1 2.6-3.1 4-1.5 Z" fill="url(#fc-gold)" opacity="0.85"/>
</svg>
