<svg width="32" height="32" viewBox="0 0 32 32" fill="none" xmlns="http://www.w3.org/2000/svg">
  <!-- Generic rose heart marker for kickers, list bullets, name plates. -->
  <path d="M16 7 c3-3.6 9-1.6 9 3.4 c0 4.4-5.6 8-9 11 c-3.4-3-9-6.6-9-11 c0-5 6-7 9-3.4 Z" fill="#e58aa6"/>
  <path d="M16 7 c3-3.6 9-1.6 9 3.4 c0 4.4-5.6 8-9 11 c-3.4-3-9-6.6-9-11 c0-5 6-7 9-3.4 Z" stroke="#c75c80" stroke-width="1" fill="none" opacity="0.55"/>
  <path d="M12 11 c0.8-1 2-1.4 3-1.2" stroke="#fff" stroke-width="1.2" stroke-linecap="round" opacity="0.7"/>
</svg>
