<svg width="48" height="48" viewBox="0 0 48 48" fill="none" xmlns="http://www.w3.org/2000/svg">
  <!-- Settings: rounded gear with heart core. -->
  <path d="M24 7 l3 4.2 l5-1.4 l1 5.1 l5 1.7 l-1.8 4.9 l3.2 4 l-3.2 4 l1.8 4.9 l-5 1.7 l-1 5.1 l-5-1.4 l-3 4.2 l-3-4.2 l-5 1.4 l-1-5.1 l-5-1.7 l1.8-4.9 l-3.2-4 l3.2-4 l-1.8-4.9 l5-1.7 l1-5.1 l5 1.4 Z"
        stroke="currentColor" stroke-width="2.2" stroke-linejoin="round"/>
  <path d="M24 19 c1.6-2 5-0.9 5 1.7 c0 2.3-3 4.3-5 5.9 c-2-1.6-5-3.6-5-5.9 c0-2.6 3.4-3.7 5-1.7 Z" fill="#e58aa6"/>
</svg>
