<svg width="48" height="48" viewBox="0 0 48 48" fill="none" xmlns="http://www.w3.org/2000/svg">
  <!-- Achievement: trophy cup with a heart. -->
  <path d="M16 9 H32 V18 a8 8 0 0 1 -16 0 Z" stroke="currentColor" stroke-width="2.4" stroke-linejoin="round"/>
  <path d="M16 12 H10 a1 1 0 0 0 -1 1 c0 4 3 7 7 7 M32 12 H38 a1 1 0 0 1 1 1 c0 4 -3 7 -7 7" stroke="#e6c178" stroke-width="2.4" stroke-linecap="round"/>
  <path d="M24 26 V32 M18 39 H30 M21 32 H27 L30 39 H18 Z" stroke="currentColor" stroke-width="2.4" stroke-linejoin="round" stroke-linecap="round"/>
  <path d="M24 12 c1.2-1.4 3.6-0.6 3.6 1.3 c0 1.7-2.2 3.1-3.6 4.2 c-1.4-1.1-3.6-2.5-3.6-4.2 c0-1.9 2.4-2.7 3.6-1.3 Z" fill="#e58aa6"/>
</svg>
