<svg xmlns="http://www.w3.org/2000/svg" viewBox="0 0 128 128" fill="none">
  <rect x="20" y="20" width="88" height="88" rx="18" fill="#33251F"/>
  <rect x="27" y="27" width="74" height="74" rx="14" stroke="#D6B36A" stroke-width="4"/>
  <path d="M64 35c12 14 21 23 21 36 0 12-9 22-21 22s-21-10-21-22c0-13 9-22 21-36z" fill="#CFA85E"/>
  <path d="M64 45c7 9 12 15 12 23 0 7-5 13-12 13s-12-6-12-13c0-8 5-14 12-23z" fill="#5EC9D8"/>
  <path d="M39 64h50" stroke="#F2D995" stroke-width="3" stroke-linecap="round"/>
</svg>
